<svg xmlns="http://www.w3.org/2000/svg" width="322" height="234" fill="none" viewBox="0 0 322 234"><g opacity=".4"><path fill="#0071BC" d="m127.517 140.416-9.561 2.095c4.242-.81 8.34-1.708 12.582-2.519l-.145-.087c-.828.062-1.883.174-2.876.511"/><path fill="#B8D1F5" d="M231.009-.886c4.867-7.737 9.796-15.25 16.959-21.226 12.111-9.92 27.484-8.882 38.488-2.24 3.909 2.36 5.665 6.977 4.401 10.709-1.244 3.37-5.155 4.941-9.976 4.092l-1.551-.375-3.104-.75c-8.42-2.085-15.374.273-20.013 6.65-5.115 6.838-9.071 14.375-13.814 21.251-1.553 2.246-4.058 4.105-6.666 5.153-3.311 1.56-6.58-.226-9.123-2.884-2.482-2.434-2.976-5.542-1.754-8.55 1.72-3.83 4.123-7.812 6.153-11.83"/><path fill="#B8D1F5" d="M328.594 37.404c2.817-4.668 5.22-9.959 6.796-15.188 8.396-27.33-1.518-56.724-25.178-75.124-18.138-14.13-38.475-18.727-60.308-14.3-19.183 3.965-33.57 14.384-43.491 30.494-17.047 27.916-33.803 56.006-50.705 84.01l-1.822 3.02c4.385 1.897 8.501 4.569 12.493 8.101 15.117 13.245 22.205 29.32 17.268 48.627-.684 2.771-1.803 5.279-2.777 7.875l-2.568 4.255c-1.76 1.934-3.376 3.956-5.198 5.665-5.941 5.591-13.186 9.084-21.298 10.742-6.974 1.409-13.948 2.819-21.005 4.365.6 1.298.992 2.284 1.53 3.357 8.327 17.949 21.811 30.956 40.491 38.297 33.037 13.011 67.93 1.672 85.328-27.155 23.385-39.072 47.059-77.97 70.444-117.041m-56.29 47.116-81.226-49.025c.414-.686.683-1.46 1.015-2.009 12.179-20.179 23.923-40.62 36.681-60.449 12.096-18.73 39.619-24.405 58.793-12.645 6.805 4.108 13.466 8.127 18.035 14.63 9.82 14.168 11.507 29.044 5.311 44.22-1.388 3.282-3.211 6.302-5.034 9.322l-31.731 52.574c-.435 1.048-1.098 2.146-1.844 3.382"/><path fill="#B8D1F5" d="M172.836 124.869c1.822-1.71 3.437-3.731 5.197-5.666l2.569-4.255c.974-2.596 2.092-5.104 2.777-7.875 4.936-19.306-2.151-35.382-17.269-48.626-3.846-3.446-8.107-6.205-12.493-8.102l-.165.274c-7.344-2.56-14.669-2.86-22.098-1.352-2.877.512-4.49-1.398-5.171-3.87-3.448-12.942-12.485-21.206-24.794-26.013-18.763-7.204-36.29-5.984-51.071 7.38-2.133 1.896-3.83 4.055-5.673 6.127l-2.569 4.255c-.891 2.459-1.927 4.83-2.59 7.238-2.178 7.863-1.893 15.9.42 23.85 6.297 21.967 12.884 44.109 19.182 66.075 1.363 4.943 4.195 9.087 7.731 12.719l3.33 2.01c6.31 2.31 12.352 1.462 18.581-.022 9.727-2.369 19.288-4.464 29.076-6.609-11.299 2.357-22.515 4.576-33.814 6.933 11.299-2.357 22.598-4.714 33.814-6.933l9.561-2.095 2.959-.649.145.088c6.974-1.41 13.948-2.819 21.005-4.365 8.174-1.434 15.418-4.927 21.36-10.517m-21.179-14.656c-3.043 2.096-6.955 3.668-10.68 4.603-17.694 4.116-35.45 8.007-53.206 11.898-6.374 1.396-8.98-.177-10.714-6.467-4.831-17.524-9.663-35.047-14.266-52.62-1.92-6.964-1.75-13.791 1.978-19.968 7.622-12.63 25.21-13.625 36.087-2.19 4.24 4.43 6.699 9.847 8.247 15.464 3.572 12.082 4.172 12.07 16.216 9.787 6.291-1.259 12.747-1.483 19.14.69 8.668 2.984 14.168 8.926 15.839 17.613 1.816 8.774-1.231 16.112-8.641 21.19"/></g></svg>